<mxfile host="app.diagrams.net" modified="2021-12-05T08:37:42.751Z" agent="5.0 (Windows NT 10.0; WOW64) AppleWebKit/537.36 (KHTML, like Gecko) Chrome/86.0.4240.198 Safari/537.36" etag="RFDEmBESMObjIyhdPN7z" version="15.9.1" type="github">
  <diagram id="HFCnj8aLhszsA6gR-yzJ" name="产品矩阵">
    <mxGraphModel dx="1422" dy="769" grid="1" gridSize="10" guides="1" tooltips="1" connect="1" arrows="1" fold="1" page="1" pageScale="1" pageWidth="827" pageHeight="1169" math="0" shadow="0">
      <root>
        <mxCell id="0" />
        <mxCell id="1" parent="0" />
        <mxCell id="byi06CO_j5vsrsdqkOMh-2" value="" style="rounded=1;whiteSpace=wrap;html=1;fillColor=#f5f5f5;strokeColor=#666666;gradientColor=#b3b3b3;arcSize=6;" vertex="1" parent="1">
          <mxGeometry x="80" y="40" width="1120" height="80" as="geometry" />
        </mxCell>
        <mxCell id="byi06CO_j5vsrsdqkOMh-3" value="业务场景" style="rounded=1;whiteSpace=wrap;html=1;fillColor=#647687;fontColor=#ffffff;strokeColor=#314354;fontSize=20;fontFamily=黑体;" vertex="1" parent="1">
          <mxGeometry x="120" y="55" width="160" height="50" as="geometry" />
        </mxCell>
        <mxCell id="byi06CO_j5vsrsdqkOMh-6" value="服务" style="rounded=1;whiteSpace=wrap;html=1;fillColor=#bac8d3;strokeColor=#23445d;fontSize=20;fontFamily=黑体;" vertex="1" parent="1">
          <mxGeometry x="780" y="55" width="120" height="50" as="geometry" />
        </mxCell>
        <mxCell id="byi06CO_j5vsrsdqkOMh-15" value="" style="rounded=1;whiteSpace=wrap;html=1;fillColor=#dae8fc;strokeColor=#6c8ebf;" vertex="1" parent="1">
          <mxGeometry x="80" y="680" width="1080" height="80" as="geometry" />
        </mxCell>
        <mxCell id="byi06CO_j5vsrsdqkOMh-16" value="管理后台" style="rounded=1;whiteSpace=wrap;html=1;fillColor=#0B2E52;fontColor=#ffffff;strokeColor=#006EAF;fontSize=20;fontFamily=黑体;" vertex="1" parent="1">
          <mxGeometry x="120" y="695" width="160" height="50" as="geometry" />
        </mxCell>
        <mxCell id="byi06CO_j5vsrsdqkOMh-17" value="一体化管理平台" style="rounded=1;whiteSpace=wrap;html=1;fillColor=#2E5496;fontColor=#ffffff;strokeColor=#006EAF;fontSize=20;fontFamily=黑体;" vertex="1" parent="1">
          <mxGeometry x="360" y="695" width="360" height="50" as="geometry" />
        </mxCell>
        <mxCell id="byi06CO_j5vsrsdqkOMh-18" value="运营运维平台" style="rounded=1;whiteSpace=wrap;html=1;fillColor=#2E5496;fontColor=#ffffff;strokeColor=#006EAF;fontSize=20;fontFamily=黑体;" vertex="1" parent="1">
          <mxGeometry x="760" y="695" width="360" height="50" as="geometry" />
        </mxCell>
        <mxCell id="byi06CO_j5vsrsdqkOMh-19" value="" style="rounded=1;whiteSpace=wrap;html=1;fillColor=#dae8fc;strokeColor=#6c8ebf;" vertex="1" parent="1">
          <mxGeometry x="80" y="770" width="1080" height="130" as="geometry" />
        </mxCell>
        <mxCell id="byi06CO_j5vsrsdqkOMh-20" value="基础设施" style="rounded=1;whiteSpace=wrap;html=1;fillColor=#0B2E52;fontColor=#ffffff;strokeColor=#006EAF;fontSize=20;fontFamily=黑体;" vertex="1" parent="1">
          <mxGeometry x="120" y="786.25" width="160" height="97.5" as="geometry" />
        </mxCell>
        <mxCell id="byi06CO_j5vsrsdqkOMh-24" value="" style="rounded=1;whiteSpace=wrap;html=1;fillColor=#f5f5f5;strokeColor=#666666;gradientColor=#b3b3b3;arcSize=6;" vertex="1" parent="1">
          <mxGeometry x="80" y="130" width="1120" height="240" as="geometry" />
        </mxCell>
        <mxCell id="byi06CO_j5vsrsdqkOMh-25" value="应用" style="rounded=1;whiteSpace=wrap;html=1;fillColor=#8CAADC;fontColor=#ffffff;strokeColor=#006EAF;fontSize=20;fontFamily=黑体;" vertex="1" parent="1">
          <mxGeometry x="120" y="150" width="160" height="200" as="geometry" />
        </mxCell>
        <mxCell id="byi06CO_j5vsrsdqkOMh-26" value="" style="rounded=1;whiteSpace=wrap;html=1;fillColor=#8CAADC;fontColor=#ffffff;strokeColor=#006EAF;fontSize=20;fontFamily=黑体;" vertex="1" parent="1">
          <mxGeometry x="360" y="150" width="160" height="200" as="geometry" />
        </mxCell>
        <mxCell id="byi06CO_j5vsrsdqkOMh-27" value="认证" style="rounded=1;whiteSpace=wrap;html=1;fillColor=#bac8d3;strokeColor=#23445d;fontSize=20;fontFamily=黑体;" vertex="1" parent="1">
          <mxGeometry x="360" y="55" width="120" height="50" as="geometry" />
        </mxCell>
        <mxCell id="byi06CO_j5vsrsdqkOMh-28" value="磋商" style="rounded=1;whiteSpace=wrap;html=1;fillColor=#bac8d3;strokeColor=#23445d;fontSize=20;fontFamily=黑体;" vertex="1" parent="1">
          <mxGeometry x="500" y="55" width="120" height="50" as="geometry" />
        </mxCell>
        <mxCell id="byi06CO_j5vsrsdqkOMh-29" value="签约" style="rounded=1;whiteSpace=wrap;html=1;fillColor=#bac8d3;strokeColor=#23445d;fontSize=20;fontFamily=黑体;" vertex="1" parent="1">
          <mxGeometry x="640" y="55" width="120" height="50" as="geometry" />
        </mxCell>
        <mxCell id="byi06CO_j5vsrsdqkOMh-30" value="培训" style="rounded=1;whiteSpace=wrap;html=1;fillColor=#bac8d3;strokeColor=#23445d;fontSize=20;fontFamily=黑体;" vertex="1" parent="1">
          <mxGeometry x="920" y="55" width="120" height="50" as="geometry" />
        </mxCell>
        <mxCell id="byi06CO_j5vsrsdqkOMh-31" value="OA" style="rounded=1;whiteSpace=wrap;html=1;fillColor=#bac8d3;strokeColor=#23445d;fontSize=20;fontFamily=黑体;" vertex="1" parent="1">
          <mxGeometry x="1060" y="55" width="120" height="50" as="geometry" />
        </mxCell>
        <mxCell id="byi06CO_j5vsrsdqkOMh-36" value="" style="rounded=0;whiteSpace=wrap;html=1;fontSize=20;fillColor=#8CAADC;fontColor=#FFFFFF;strokeColor=none;" vertex="1" parent="1">
          <mxGeometry x="340" y="786.25" width="800" height="97.5" as="geometry" />
        </mxCell>
        <mxCell id="byi06CO_j5vsrsdqkOMh-21" value="云计算服务" style="rounded=1;whiteSpace=wrap;html=1;fillColor=#0B2E52;fontColor=#ffffff;strokeColor=#006EAF;fontSize=20;fontFamily=黑体;" vertex="1" parent="1">
          <mxGeometry x="360" y="823.75" width="160" height="50" as="geometry" />
        </mxCell>
        <mxCell id="byi06CO_j5vsrsdqkOMh-32" value="数据库服务" style="rounded=1;whiteSpace=wrap;html=1;fillColor=#0B2E52;fontColor=#ffffff;strokeColor=#006EAF;fontSize=20;fontFamily=黑体;" vertex="1" parent="1">
          <mxGeometry x="560" y="823.75" width="160" height="50" as="geometry" />
        </mxCell>
        <mxCell id="byi06CO_j5vsrsdqkOMh-33" value="安全服务" style="rounded=1;whiteSpace=wrap;html=1;fillColor=#0B2E52;fontColor=#ffffff;strokeColor=#006EAF;fontSize=20;fontFamily=黑体;" vertex="1" parent="1">
          <mxGeometry x="760" y="823.75" width="160" height="50" as="geometry" />
        </mxCell>
        <mxCell id="byi06CO_j5vsrsdqkOMh-34" value="备份服务" style="rounded=1;whiteSpace=wrap;html=1;fillColor=#2E5496;fontColor=#ffffff;strokeColor=#006EAF;fontSize=20;fontFamily=黑体;" vertex="1" parent="1">
          <mxGeometry x="960" y="823.75" width="160" height="50" as="geometry" />
        </mxCell>
        <mxCell id="byi06CO_j5vsrsdqkOMh-37" value="云上贵州系统平台" style="text;html=1;strokeColor=none;fillColor=none;align=center;verticalAlign=middle;whiteSpace=wrap;rounded=1;fontSize=20;fontColor=#FFFFFF;fontFamily=黑体;arcSize=0;" vertex="1" parent="1">
          <mxGeometry x="340" y="786.25" width="800" height="30" as="geometry" />
        </mxCell>
        <mxCell id="byi06CO_j5vsrsdqkOMh-38" value="云计算服务" style="rounded=1;whiteSpace=wrap;html=1;fillColor=#2E5496;fontColor=#ffffff;strokeColor=#006EAF;fontSize=20;fontFamily=黑体;" vertex="1" parent="1">
          <mxGeometry x="360" y="823.75" width="160" height="50" as="geometry" />
        </mxCell>
        <mxCell id="byi06CO_j5vsrsdqkOMh-39" value="数据库服务" style="rounded=1;whiteSpace=wrap;html=1;fillColor=#2E5496;fontColor=#ffffff;strokeColor=#006EAF;fontSize=20;fontFamily=黑体;" vertex="1" parent="1">
          <mxGeometry x="560" y="823.75" width="160" height="50" as="geometry" />
        </mxCell>
        <mxCell id="byi06CO_j5vsrsdqkOMh-40" value="安全服务" style="rounded=1;whiteSpace=wrap;html=1;fillColor=#2E5496;fontColor=#ffffff;strokeColor=#006EAF;fontSize=20;fontFamily=黑体;" vertex="1" parent="1">
          <mxGeometry x="760" y="823.75" width="160" height="50" as="geometry" />
        </mxCell>
      </root>
    </mxGraphModel>
  </diagram>
</mxfile>
